HIERARCHY
	ROOT Hips
	{
		OFFSET 0 0 0 
		CHANNELS 6 Xposition Yposition Zposition Zrotation Xrotation Yrotation
		JOINT LHipJoint
		{
			OFFSET 0 0 0 
			CHANNELS 3 Zrotation Xrotation Yrotation
			JOINT LeftUpLeg
			{
				OFFSET 0.0783705 -0.0912565 0.0336595 
				CHANNELS 3 Zrotation Xrotation Yrotation
				JOINT LeftLeg
				{
					OFFSET 0.117854 -0.323802 0 
					CHANNELS 3 Zrotation Xrotation Yrotation
					JOINT LeftFoot
					{
						OFFSET 0.135318 -0.371784 0 
						CHANNELS 3 Zrotation Xrotation Yrotation
						JOINT LeftToeBase
						{
							OFFSET 0.0102135 -0.028061 0.104268 
							CHANNELS 3 Zrotation Xrotation Yrotation
							End Site
							{
								OFFSET 0 -0 0.0542675
							}
						}
					}
				}
			}
		}
		JOINT RHipJoint
		{
			OFFSET 0 0 0 
			CHANNELS 3 Zrotation Xrotation Yrotation
			JOINT RightUpLeg
			{
				OFFSET -0.075711 -0.0912565 0.0336595 
				CHANNELS 3 Zrotation Xrotation Yrotation
				JOINT RightLeg
				{
					OFFSET -0.124412 -0.341819 0 
					CHANNELS 3 Zrotation Xrotation Yrotation
					JOINT RightFoot
					{
						OFFSET -0.135017 -0.370955 0 
						CHANNELS 3 Zrotation Xrotation Yrotation
						JOINT RightToeBase
						{
							OFFSET -0.009875 -0.0271315 0.111076 
							CHANNELS 3 Zrotation Xrotation Yrotation
							End Site
							{
								OFFSET -0 -0 0.0574575
							}
						}
					}
				}
			}
		}
		JOINT LowerBack
		{
			OFFSET 0 0 0 
			CHANNELS 3 Zrotation Xrotation Yrotation
			JOINT Spine
			{
				OFFSET -0.0007835 0.106437 -0.007921 
				CHANNELS 3 Zrotation Xrotation Yrotation
				JOINT Spine1
				{
					OFFSET 0.003049 0.106663 -0.0005215 
					CHANNELS 3 Zrotation Xrotation Yrotation
					JOINT Neck
					{
						OFFSET 0 0 0 
						CHANNELS 3 Zrotation Xrotation Yrotation
						JOINT Neck1
						{
							OFFSET -0.00252 0.089216 0.0066935 
							CHANNELS 3 Zrotation Xrotation Yrotation
							JOINT Head
							{
								OFFSET -9e-005 0.08844 -0.0166515 
								CHANNELS 3 Zrotation Xrotation Yrotation
								End Site
								{
									OFFSET 0.000367 0.0906245 -0.0063595
								}
							}
						}
					}
					JOINT LeftShoulder
					{
						OFFSET 0 0 0 
						CHANNELS 3 Zrotation Xrotation Yrotation
						JOINT LeftArm
						{
							OFFSET 0.1861 0.047094 -0.0271585 
							CHANNELS 3 Zrotation Xrotation Yrotation
							JOINT LeftForeArm
							{
								OFFSET 0.257301 -0 0 
								CHANNELS 3 Zrotation Xrotation Yrotation
								JOINT LeftHand
								{
									OFFSET 0.182226 -0 -0 
									CHANNELS 3 Zrotation Xrotation Yrotation
									JOINT LeftFingerBase
									{
										OFFSET 0 0 0 
										CHANNELS 3 Zrotation Xrotation Yrotation
										JOINT LFingers
										{
											OFFSET 0.028114 -0 0 
											CHANNELS 3 Zrotation Xrotation Yrotation
											End Site
											{
												OFFSET 0.022666 -0 0
											}
										}
									}
									JOINT LThumb
									{
										OFFSET 0 0 0 
										CHANNELS 3 Zrotation Xrotation Yrotation
										End Site
										{
											OFFSET 0.0230125 -0 0.0230125
										}
									}
								}
							}
						}
					}
					JOINT RightShoulder
					{
						OFFSET 0 0 0 
						CHANNELS 3 Zrotation Xrotation Yrotation
						JOINT RightArm
						{
							OFFSET -0.165127 0.0613395 -0.0234705 
							CHANNELS 3 Zrotation Xrotation Yrotation
							JOINT RightForeArm
							{
								OFFSET -0.266957 -0 0 
								CHANNELS 3 Zrotation Xrotation Yrotation
								JOINT RightHand
								{
									OFFSET -0.178239 -0 -0 
									CHANNELS 3 Zrotation Xrotation Yrotation
									JOINT RightFingerBase
									{
										OFFSET 0 0 0 
										CHANNELS 3 Zrotation Xrotation Yrotation
										JOINT RFingers
										{
											OFFSET -0.0428735 -0 0 
											CHANNELS 3 Zrotation Xrotation Yrotation
											End Site
											{
												OFFSET -0.034566 -0 0
											}
										}
									}
									JOINT RThumb
									{
										OFFSET 0 0 0 
										CHANNELS 3 Zrotation Xrotation Yrotation
										End Site
										{
											OFFSET -0.0350935 -0 0.0350935
										}
									}
								}
							}
						}
					}
				}
			}
		}
	}
MOTION
Frames:	5
Frame Time:	0.0166667
-0.48481 0.72218 -0.435605 -1.52406 13.106 39.1555 -0 0 -0 -26.1274 -52.1257 -27.618 -33.3062 64.7515 50.5142 -7.25436 -20.9029 -22.4311 -1.85012 -23.2247 -8.98544 -0 0 -0 -15.084 -64.4944 -25.2159 79.5379 69.7074 -100.156 -2.43248 -28.963 -0.219674 0.104022 -5.71034 2.08575 -2.81164 30.4672 1.35283 1.74366 7.47865 1.34767 3.00574 -8.36941 0.794461 -11.759 -16.7201 -11.6946 10.0124 0.09244 -13.8301 3.57426 3.95916 -6.43763 -0 0 -0 -80.4238 -17.4179 5.33352 25.9554 -12.0722 -49.2941 0 -4.9046 0 25.771 18.1217 32.7914 -7.125 0 0 4.1041 1.64832 66.8448 -0 0 -0 59.029 -16.9359 17.2238 -27.9202 -14.4979 54.1955 -0 26.5157 -0 -30.5667 6.15242 -10.285 7.125 0 -0 -4.39342 -0.237544 -41.9111 
-0.4884 0.72408 -0.432535 -1.63777 13.1274 39.1277 -0 0 -0 -25.5398 -51.6446 -27.6176 -32.1025 64.3149 49.1809 -7.05416 -21.0162 -21.937 -1.96182 -23.8622 -9.26506 -0 0 -0 -13.9912 -64.437 -24.7086 78.7401 69.7548 -99.3059 -2.54343 -29.0375 -0.444241 0.11419 -5.98188 2.18571 -2.71341 30.2346 1.24903 1.86081 7.52219 1.26398 3.12551 -8.2048 0.751897 -11.8365 -17.2434 -11.4667 9.79471 0.624759 -13.4589 3.4933 4.1492 -6.24714 -0 0 -0 -80.5845 -17.495 5.40732 25.9368 -12.0512 -49.25 0 -4.2954 0 25.1741 17.868 33.1367 -7.125 0 0 3.54827 1.43976 67.0583 -0 0 -0 58.7891 -16.7291 17.2683 -27.9385 -14.5224 54.2434 -0 26.6594 -0 -30.3131 5.98143 -10.106 7.125 0 -0 -4.12397 -0.239911 -41.6759 
-0.492015 0.725875 -0.42847 -1.30624 13.1389 39.1114 -0 0 -0 -25.1149 -50.8287 -27.2364 -30.835 63.8242 47.7716 -6.80611 -21.4417 -21.2111 -2.35423 -25.9379 -10.1969 -0 0 -0 -13.5821 -63.9883 -24.4683 77.92 69.799 -98.4318 -2.36205 -29.1686 0.0156896 0.0695639 -4.67344 1.70507 -2.96185 30.1474 1.23705 1.86698 7.6149 1.18021 3.29393 -8.05498 0.713843 -11.6777 -17.2421 -11.3555 9.38253 0.481038 -13.3023 3.37053 4.05092 -6.19073 -0 0 -0 -80.8304 -18.2162 5.08759 25.7237 -11.8112 -48.7434 0 -3.3068 0 24.9428 16.4847 31.388 -7.125 0 0 2.75812 1.00435 64.9935 -0 0 -0 58.67 -16.5669 17.0593 -28.0202 -14.6327 54.4579 -0 26.6563 -0 -30.3018 6.24929 -10.5514 7.125 0 -0 -4.16176 -0.20449 -42.1915 
-0.496035 0.72797 -0.424835 -1.55106 12.9709 38.7605 -0 0 -0 -23.6525 -50.5916 -26.3343 -29.7639 63.3827 46.5759 -6.57476 -21.2027 -20.7832 -2.38733 -26.1028 -10.2725 -0 0 -0 -11.0638 -63.9367 -22.678 76.5544 69.8627 -96.9771 -2.48698 -29.1953 -0.256827 0.0709852 -4.72058 1.72234 -2.74779 30.1196 1.28757 1.87146 7.56246 1.30394 3.14143 -8.10748 0.768077 -11.5485 -17.7707 -11.159 9.29903 1.08708 -13.0287 3.28778 4.27262 -6.04165 -0 0 -0 -80.7744 -18.3008 5.14909 25.6537 -11.7333 -48.5779 0 -3.3066 0 25.6198 18.0896 32.923 -7.125 0 0 3.97743 1.60567 66.9496 -0 0 -0 58.5809 -16.514 17.2262 -27.8568 -14.4129 54.0299 -0 27.218 -0 -30.6002 6.0131 -10.0446 7.125 0 -0 -4.40011 -0.259197 -41.635 
-0.499805 0.729095 -0.421365 -1.55477 12.9129 38.3643 -0 0 -0 -22.5327 -50.104 -25.9319 -29.2721 63.1714 46.0253 -6.68819 -19.4208 -21.7996 -1.29961 -19.6833 -7.48122 -0 0 -0 -9.31793 -63.8022 -21.3658 75.4767 69.9043 -95.8294 -2.38479 -29.3234 0.0206452 0.0628837 -4.44493 1.62128 -2.78995 30.1231 1.26264 1.87697 7.44914 1.25267 3.18613 -8.23551 0.745084 -11.4754 -17.5537 -10.8586 9.19277 1.072 -12.6595 3.30113 4.20123 -5.87123 -0 0 -0 -80.8229 -18.6911 5.48014 25.6056 -11.68 -48.4646 0 -3.3484 0 25.7311 18.3087 33.0971 -7.125 0 0 4.15658 1.69814 67.1835 -0 0 -0 58.3241 -16.0206 17.2778 -27.802 -14.34 53.8872 -0 27.1716 -0 -30.8223 6.10645 -10.1091 7.125 0 -0 -4.62598 -0.264546 -41.7337 
